PathFileType	4	(X/Y/Z)	TVC_36_BWA_06_walk_RCNL2025.trc
DataRate	CameraRate	NumFrames	NumMarkers	Units	OrigDataRate	OrigDataStartFrame	OrigNumFrames
100	100	9	27	mm	100	625	714
Frame#	Time	R_Shoulder			L_Shoulder			C7			J_Notch			R_Elbow			L_Elbow			R_Wrist			L_Wrist			R_Asis			L_Asis			R_Psis			L_Psis			Sacral			Thoracic			Sternum			R_Thigh_Lateral			R_Knee_Lateral			R_Shank_Lateral			R_Ankle_Lateral			R_Heel			R_Toe			L_Thigh_Lateral			L_Knee_Lateral			L_Shank_Lateral			L_Ankle_Lateral			L_Heel			L_Toe		
		X1	Y1	Z1	X2	Y2	Z2	X3	Y3	Z3	X4	Y4	Z4	X5	Y5	Z5	X6	Y6	Z6	X7	Y7	Z7	X8	Y8	Z8	X9	Y9	Z9	X10	Y10	Z10	X11	Y11	Z11	X12	Y12	Z12	X13	Y13	Z13	X14	Y14	Z14	X15	Y15	Z15	X16	Y16	Z16	X17	Y17	Z17	X18	Y18	Z18	X19	Y19	Z19	X20	Y20	Z20	X21	Y21	Z21	X22	Y22	Z22	X23	Y23	Z23	X24	Y24	Z24	X25	Y25	Z25	X26	Y26	Z26	X27	Y27	Z27
625	6.24000000	1315.589478	1396.460327	625.517456	1231.495117	1378.226318	288.055267	1244.367310	1441.007812	465.000610	1394.881104	1317.100586	439.632690	1270.652954	1111.466187	734.182495	1216.317749	1091.924561	169.471405	1377.370667	913.715912	741.188446	1412.258789	1017.962036	221.196709	1362.303955	893.843994	561.911682	1292.669312	911.947876	313.799072	1179.355835	935.836853	534.091248	1154.824463	938.056641	453.637939	1167.090149	936.946747	493.864594	1200.171143	1154.190552	487.036713	1428.287231	1163.896240	416.217316	1350.278442	638.593689	662.501282	1406.343140	469.569092	587.169250	1371.332275	275.385162	655.409424	1381.320435	75.291840	602.494873	1338.275513	56.871155	551.954346	1508.952759	44.202545	578.785461	1232.284668	674.487610	231.534042	1231.017700	476.023499	295.829834	1170.471680	281.621735	248.168228	1218.290039	66.359970	299.354309	1169.738770	51.450405	336.914032	1339.815186	53.699612	355.163727
626	6.25000000	1320.128174	1396.912476	627.732361	1234.771729	1378.931519	290.622375	1248.315674	1441.450806	467.480286	1399.046875	1317.945068	441.463409	1276.169556	1112.084351	736.384827	1218.114624	1092.025146	173.490173	1381.629700	913.691284	744.593445	1414.818604	1018.424164	223.172440	1367.088501	894.775757	563.519958	1296.952026	912.150940	315.581543	1184.054810	936.585876	536.056946	1159.368530	938.450317	455.607330	1171.711670	937.518097	495.832138	1204.661621	1154.521729	489.101501	1432.737305	1164.786011	417.894287	1355.243774	639.641846	663.855469	1409.114624	469.692261	588.047668	1374.199097	275.250488	656.590271	1381.573486	75.138466	603.007507	1338.252441	57.016254	552.504578	1508.846802	44.234657	579.010559	1236.503784	674.703308	233.230865	1235.029663	476.220154	297.378448	1172.840942	282.311340	249.386520	1218.395752	66.713516	300.274078	1169.858154	51.808384	337.857513	1340.019531	53.441666	355.613953
627	6.26000000	1324.579956	1397.388306	629.915222	1238.196045	1379.616943	293.095367	1252.247925	1441.887085	469.893982	1403.213135	1318.785278	443.318115	1281.518921	1112.764160	738.573120	1219.952271	1092.065918	177.559845	1385.881042	913.800751	747.955505	1417.267578	1018.594666	225.371475	1371.728149	895.728821	565.272949	1301.268433	912.315308	317.435944	1188.629150	937.360840	537.978943	1163.851196	938.849182	457.525452	1176.240173	938.105011	497.752197	1209.102539	1154.870117	491.089203	1437.197632	1165.667969	419.639496	1359.770386	640.525635	665.363770	1411.661865	469.791870	588.992798	1376.565674	275.017609	657.542664	1381.918945	74.997536	603.377747	1338.387939	57.123596	552.900818	1508.907471	44.266369	579.157654	1240.861084	674.871033	234.997391	1239.166504	476.373535	299.006134	1175.319702	282.971375	250.698730	1218.521484	67.085007	301.366302	1170.003418	52.186283	338.997070	1340.259888	53.143684	356.146393
628	6.27000000	1328.946167	1397.881592	632.059998	1241.770142	1380.271851	295.464081	1256.167480	1442.311768	472.233276	1407.379761	1319.609619	445.192078	1286.680420	1113.482300	740.732971	1221.856689	1092.047119	181.641830	1390.102356	914.021545	751.257263	1419.625000	1018.477448	227.799004	1376.221802	896.677856	567.162598	1305.609009	912.438721	319.357635	1193.075195	938.141174	539.855835	1168.265503	939.244324	459.391235	1180.670349	938.692749	499.623535	1213.488647	1155.231812	493.000000	1441.661255	1166.529541	421.447845	1363.787598	641.192322	666.980103	1413.970215	469.848419	589.978821	1378.414429	274.700134	658.248901	1382.294434	74.872551	603.578552	1338.628296	57.202049	553.119629	1509.087036	44.283928	579.214111	1245.350342	674.982178	236.845505	1243.402832	476.480927	300.715851	1177.879761	283.593750	252.123871	1218.667236	67.470566	302.649078	1170.181396	52.582935	340.365875	1340.541016	52.807285	356.756439
629	6.28000000	1333.227295	1398.386719	634.161682	1245.491211	1380.885986	297.721771	1260.077026	1442.720703	474.491638	1411.545410	1320.407959	447.081024	1291.641724	1114.218140	742.854004	1223.853882	1091.970825	185.696823	1394.273682	914.333160	754.486145	1421.911255	1018.081207	230.460098	1380.571045	897.602051	569.176880	1309.963623	912.520020	321.340454	1197.391479	938.908569	541.687195	1172.605835	939.627014	461.204956	1184.998657	939.267792	501.446075	1217.814941	1155.602783	494.835632	1446.121216	1167.359375	423.313660	1367.271973	641.622742	668.661194	1416.041260	469.851807	590.987305	1379.819336	274.321106	658.745056	1382.653442	74.764038	603.618042	1338.920898	57.264111	553.174194	1509.335571	44.279629	579.183899	1249.961304	675.028381	238.782425	1247.710693	476.541412	302.510376	1180.490112	284.172028	253.682434	1218.832397	67.866386	304.138733	1170.400146	52.996998	341.996063	1340.868042	52.435841	357.437836
630	6.29000000	1337.423828	1398.898193	636.216492	1249.352173	1381.451294	299.864929	1263.977905	1443.110352	476.664703	1415.708008	1321.171387	448.981018	1296.397461	1114.955200	744.929749	1225.970215	1091.840942	189.685974	1398.377625	914.717987	757.634247	1424.147034	1017.419189	233.359367	1384.779541	898.486023	571.300598	1314.321655	912.559204	323.376953	1201.578735	939.647827	543.473511	1176.868164	939.989624	462.968323	1189.223450	939.818726	503.220917	1222.077393	1155.979248	496.599243	1450.569580	1168.147827	425.230835	1370.242798	641.827515	670.370178	1417.889648	469.799988	592.006714	1380.915771	273.908173	659.100403	1382.968750	74.671028	603.531128	1339.220703	57.322269	553.104187	1509.608032	44.251114	579.083740	1254.679443	675.002808	240.809494	1252.059448	476.555878	304.392151	1183.117554	284.701385	255.394989	1219.016846	68.268936	305.848633	1170.668213	53.426907	343.916504	1341.245361	52.034485	358.182800
631	6.30000000	1341.536133	1399.410767	638.221558	1253.342041	1381.961060	301.892761	1267.870728	1443.478271	478.750000	1419.864258	1321.892700	450.888550	1300.946167	1115.681030	746.957520	1228.231689	1091.663330	193.572006	1402.400269	915.162201	760.698975	1426.353455	1016.508209	236.500511	1388.853394	899.319580	573.516296	1318.672241	912.557251	325.458496	1205.639893	940.347412	545.216675	1181.050415	940.325562	464.684570	1193.345154	940.336487	504.950623	1226.272339	1156.357788	498.295135	1454.998535	1168.887207	427.192749	1372.754150	641.839600	672.078979	1419.540039	469.696991	593.031616	1381.856934	273.487579	659.394287	1383.230225	74.591988	603.367432	1339.493652	57.385918	552.962952	1509.868896	44.200180	578.938171	1259.483887	674.901184	242.922073	1256.416382	476.527161	306.362549	1185.728271	285.179138	257.280518	1219.219849	68.675026	307.787842	1170.994385	53.870758	346.149689	1341.677246	51.609943	358.981842
632	6.31000000	1345.564209	1399.919922	640.174988	1257.447510	1382.411133	303.806976	1271.754883	1443.822754	480.747009	1424.010376	1322.566406	452.800293	1305.289185	1116.387329	748.938293	1230.663452	1091.444946	197.320435	1406.331848	915.655914	763.682739	1428.550598	1015.368378	239.885910	1392.800659	900.097229	575.805237	1323.005005	912.516418	327.575867	1209.580322	940.999084	546.919922	1185.152100	940.629944	466.358459	1197.366211	940.814514	506.639191	1230.397339	1156.734985	499.928680	1459.399902	1169.571777	429.192322	1374.883179	641.705994	673.768860	1421.022461	469.550964	594.060852	1382.771240	273.079315	659.696594	1383.439331	74.525002	603.177856	1339.718262	57.459724	552.803772	1510.094482	44.131348	578.773865	1264.347290	674.723206	245.110107	1260.747437	476.459930	308.421387	1188.288818	285.604675	259.354675	1219.441162	69.081963	309.959747	1171.386963	54.326263	348.709412	1342.166504	51.170193	359.823944
633	6.32000000	1349.507935	1400.421509	642.075500	1261.652954	1382.799438	305.611084	1275.629028	1444.142578	482.656860	1428.141846	1323.188843	454.713287	1309.428467	1117.070190	750.875977	1233.288818	1091.194092	200.900650	1410.164673	916.192535	766.592102	1430.757141	1014.022736	243.516029	1396.630859	900.817444	578.148193	1327.309326	912.439575	329.719269	1213.407593	941.597656	548.588257	1189.174072	940.899292	467.996521	1201.290833	941.248474	508.292389	1234.450562	1157.108154	501.505981	1463.765869	1170.197632	431.222137	1376.718262	641.479248	675.428894	1422.369019	469.371918	595.095703	1383.732178	272.693939	660.055054	1383.602417	74.467659	603.003845	1339.884766	57.544346	552.669128	1510.272339	44.050529	578.614746	1269.235718	674.473083	247.359360	1265.017944	476.360352	310.566162	1190.767212	285.979492	261.628326	1219.680420	69.487564	312.361206	1171.853149	54.790874	351.598572	1342.714233	50.724056	360.696777
